/* XPM */
static char * copy_alt_xpm[] = {
"18 18 95 2",
"  	c None",
". 	c #000000",
"+ 	c #CFCFCF",
"@ 	c #D7D7D7",
"# 	c #545454",
"$ 	c #6F6F6F",
"% 	c #CACACA",
"& 	c #BCBCBC",
"* 	c #9E9E9E",
"= 	c #727272",
"- 	c #DCDCDC",
"; 	c #B2B2B2",
"> 	c #848383",
", 	c #5E5D5E",
"' 	c #707070",
") 	c #1B1A1A",
"! 	c #A9A8A8",
"~ 	c #939292",
"{ 	c #C7C6C6",
"] 	c #BDBAB9",
"^ 	c #97928E",
"/ 	c #201D1C",
"( 	c #BBBBBB",
"_ 	c #9D9997",
": 	c #B8B2AB",
"< 	c #CEC3BA",
"[ 	c #433D37",
"} 	c #737373",
"| 	c #B3B2B2",
"1 	c #C8C4C1",
"2 	c #A49D97",
"3 	c #ADA298",
"4 	c #C1B3A5",
"5 	c #423A32",
"6 	c #767676",
"7 	c #AAAAAA",
"8 	c #B2B0AF",
"9 	c #9C9896",
"0 	c #9B938D",
"a 	c #ACA196",
"b 	c #96877B",
"c 	c #CFBCAA",
"d 	c #41372E",
"e 	c #393939",
"f 	c #9D9D9D",
"g 	c #B9B6B2",
"h 	c #8E8780",
"i 	c #A2968D",
"j 	c #968779",
"k 	c #B09D8C",
"l 	c #BCA48D",
"m 	c #40332A",
"n 	c #626262",
"o 	c #C7C7C7",
"p 	c #BEBEBE",
"q 	c #999999",
"r 	c #212121",
"s 	c #D6D6D5",
"t 	c #9C9795",
"u 	c #99928C",
"v 	c #AB9F95",
"w 	c #AA9B8D",
"x 	c #B09D8A",
"y 	c #9B836E",
"z 	c #BA9D80",
"A 	c #3E3026",
"B 	c #3E3E3E",
"C 	c #D9D9D9",
"D 	c #D4D4D4",
"E 	c #414141",
"F 	c #D6D3D0",
"G 	c #DFD8D1",
"H 	c #DED2C8",
"I 	c #DCCDBE",
"J 	c #DAC6B4",
"K 	c #D7BFA8",
"L 	c #D6B89C",
"M 	c #D3B08E",
"N 	c #3D2D21",
"O 	c #B3B3B3",
"P 	c #474747",
"Q 	c #464442",
"R 	c #443E3A",
"S 	c #433B35",
"T 	c #423931",
"U 	c #40362D",
"V 	c #3F3229",
"W 	c #3E2F25",
"X 	c #130E0A",
"Y 	c #535353",
"Z 	c #787878",
"` 	c #9B9B9B",
" .	c #6D6B6B",
"..	c #E4E4E4",
"+.	c #171717",
"                                    ",
"    . . . . . .                     ",
"  . + @ @ @ @ # $                   ",
"  . @ % & % * = - $                 ",
"  . @ * % ; * > , ' )               ",
"  . @ ! % & ~ { ] ^ / . . .         ",
"  . @ * ; % ( _ : < [ } @ # $       ",
"  . @ * ; | 1 2 3 4 5 6 7 = - $     ",
"  . @ * 8 9 0 a b c d e & > , ' )   ",
"  . @ f g h i j k l m n ; o p q r   ",
"  . s t u v w x y z A B C * & D E   ",
"  . F G H I J K L M N B O ! O % P   ",
"  . Q R S T U V W N X Y ~ ; * C P   ",
"              . ( Z `  .! * & % P   ",
"              . @ * * ; O & ! % P   ",
"              . @ ..............P   ",
"              . P P P P P P P P +.  ",
"                                    "};
