/* XPM */
static char * cut_alt_xpm[] = {
"18 18 18 1",
" 	c None",
".	c #494949",
"+	c #1D1D1D",
"@	c #838383",
"#	c #000000",
"$	c #2E2E2E",
"%	c #D8D8D8",
"&	c #E4E4E4",
"*	c #969696",
"=	c #A8A8A8",
"-	c #E1E1E1",
";	c #929292",
">	c #444444",
",	c #B3B3B3",
"'	c #232323",
")	c #A5A5A5",
"!	c #0D0D0D",
"~	c #3A3A3A",
"                  ",
"                  ",
"   .+         @#  ",
"   $%+       @&$  ",
"    *%+     @&+   ",
"    #=%+   @-+    ",
"     +&%+ @&;     ",
"      +&%>,=#     ",
"       '&)!#      ",
"       ~++#       ",
"      ##+###      ",
"    ####  ####    ",
"   #  ##  ##  #   ",
"  ##  #    #  ##  ",
"  #   #    #   #  ",
"  #  #      #  #  ",
"   ##        ##   ",
"                  "};
