/* XPM */
static char * save_all_xpm[] = {
"18 18 157 2",
"  	c None",
". 	c #6D6D6D",
"+ 	c #0E0E0F",
"@ 	c #090809",
"# 	c #090201",
"$ 	c #0B0201",
"% 	c #090606",
"& 	c #080B0D",
"* 	c #4C4D4E",
"= 	c #0E0F0F",
"- 	c #EEF5FA",
"; 	c #B5ADB2",
"> 	c #A06960",
", 	c #A46C62",
"' 	c #A56C63",
") 	c #9E8789",
"! 	c #95A7B8",
"~ 	c #272E33",
"{ 	c #717171",
"] 	c #0B0D0E",
"^ 	c #C0CCD6",
"/ 	c #535353",
"( 	c #44474B",
"_ 	c #3B3131",
": 	c #3C2521",
"< 	c #3D2522",
"[ 	c #3E2622",
"} 	c #39373A",
"| 	c #374046",
"1 	c #0B0C0E",
"2 	c #A3B1BC",
"3 	c #47494C",
"4 	c #D7E5F1",
"5 	c #BCA5A8",
"6 	c #CE8478",
"7 	c #D28275",
"8 	c #D28273",
"9 	c #D5877A",
"0 	c #B9B2BD",
"a 	c #96AEC3",
"b 	c #020507",
"c 	c #3E4448",
"d 	c #B8CFE1",
"e 	c #B1B1B9",
"f 	c #E3C1BB",
"g 	c #EEC5BE",
"h 	c #EEC6C0",
"i 	c #EEC8C3",
"j 	c #A9B2C0",
"k 	c #587085",
"l 	c #000000",
"m 	c #3D4348",
"n 	c #B5CDE0",
"o 	c #BAC7D1",
"p 	c #E7E7E7",
"q 	c #EDEDED",
"r 	c #ECECEC",
"s 	c #F6F6F6",
"t 	c #A9BDCC",
"u 	c #516B7E",
"v 	c #F5F5F5",
"w 	c #FFFFFF",
"x 	c #FCFCFC",
"y 	c #EFEFEF",
"z 	c #A8BBCA",
"A 	c #4F687D",
"B 	c #E1E1E1",
"C 	c #E3E3E3",
"D 	c #DEDEDE",
"E 	c #D0D0D0",
"F 	c #CFCFCF",
"G 	c #C3D2DD",
"H 	c #FCFFFF",
"I 	c #F7F8FA",
"J 	c #EFF0F1",
"K 	c #EEF0F2",
"L 	c #A4B7C6",
"M 	c #9CB6CA",
"N 	c #B8CBD9",
"O 	c #BCCBD8",
"P 	c #B5C5D3",
"Q 	c #B3C4D2",
"R 	c #A5BACB",
"S 	c #88A3B7",
"T 	c #8CABC2",
"U 	c #91ACC1",
"V 	c #96ABBB",
"W 	c #98ABB9",
"X 	c #9CAFBD",
"Y 	c #A4B7C5",
"Z 	c #97A9B9",
"` 	c #758C9D",
" .	c #70879B",
"..	c #7E98AD",
"+.	c #050608",
"@.	c #7C8993",
"#.	c #89A8C0",
"$.	c #A8B6C3",
"%.	c #C6C7CA",
"&.	c #7E8991",
"*.	c #929CA4",
"=.	c #E5E5E5",
"-.	c #C7C7C7",
";.	c #69767D",
">.	c #455967",
",.	c #8092A3",
"'.	c #51697D",
").	c #3C3D3D",
"!.	c #191E22",
"~.	c #B2CCDD",
"{.	c #84A2B9",
"].	c #B1BBC3",
"^.	c #CECECE",
"/.	c #2D4353",
"(.	c #516678",
"_.	c #6D7980",
":.	c #30495B",
"<.	c #8395A2",
"[.	c #566C7D",
"}.	c #A3A3A3",
"|.	c #3A3A3A",
"1.	c #24292E",
"2.	c #879EAF",
"3.	c #819DB3",
"4.	c #B5BEC5",
"5.	c #304556",
"6.	c #647C8D",
"7.	c #CACACA",
"8.	c #C3C3C3",
"9.	c #68767C",
"0.	c #304B5C",
"a.	c #8697A2",
"b.	c #566D7D",
"c.	c #A2A2A2",
"d.	c #434445",
"e.	c #2F3840",
"f.	c #586D7D",
"g.	c #8F989E",
"h.	c #C6C6C6",
"i.	c #7E8387",
"j.	c #858B8F",
"k.	c #8F8F8F",
"l.	c #818181",
"m.	c #565D65",
"n.	c #2E4150",
"o.	c #6D7984",
"p.	c #314656",
"q.	c #3B3C3C",
"r.	c #0D0F10",
"s.	c #1D1D1E",
"t.	c #0D0D0D",
"u.	c #030303",
"v.	c #020202",
"w.	c #010101",
"x.	c #050607",
"y.	c #0E1011",
"z.	c #6B6B6B",
"                                    ",
"  . + @ # $ $ $ $ $ $ $ % & *       ",
"  = - ; > , , , , , , ' ) ! ~ {     ",
"  ] ^ / ( _ : < < < < < < [ } | *   ",
"  1 2 3 4 5 6 7 7 7 7 8 7 9 0 a b   ",
"  1 2 c d e f g g g g g h i j k l   ",
"  1 2 m n o p q q q q q r s t u l   ",
"  1 2 m n o v w w w x v y s z A l   ",
"  1 2 m n o B C C D E F F p z A l   ",
"  1 2 m n G H w I J J J J K L A l   ",
"  1 2 m n M N O P P P P Q R S A l   ",
"  1 2 m n T U V W X Y Z `  ...A l   ",
"  +.@.m n #.$.%.&.*.=.-.;.>.,.'.l   ",
"  ).!.m ~.{.].^./.(.E -._.:.<.[.l   ",
"  }.|.1.2.3.4.B 5.6.7.8.9.0.a.b.l   ",
"    c.d.e.f.g.h.i.j.k.l.m.n.o.p.l   ",
"      }.q.r.s.t.u.v.w.l x.y.x.l z.  ",
"                                    "};
