/* XPM */
static char * text_align_left_xpm[] = {
"18 18 2 1",
" 	c None",
".	c #000000",
"                  ",
"                  ",
"                  ",
"   .. ... ..      ",
"                  ",
"   ..... .....    ",
"                  ",
"   .. .... .      ",
"                  ",
"   ..... .......  ",
"                  ",
"   ... ..... .    ",
"                  ",
"   ..... ..       ",
"                  ",
"                  ",
"                  ",
"                  "};
