/* XPM */
static char * text_align_justify_xpm[] = {
"18 18 3 1",
" 	c None",
".	c #000000",
"+	c #121212",
"                  ",
"                  ",
"                  ",
"   .. ... .. ..   ",
"                  ",
"   ..... .....+   ",
"                  ",
"   .. .... ....   ",
"                  ",
"   ..... ......   ",
"                  ",
"   ... ..... ..   ",
"                  ",
"   ..... .... .   ",
"                  ",
"                  ",
"                  ",
"                  "};
